<svg xmlns="http://www.w3.org/2000/svg" width="210" height="29" viewBox="0 0 210 29" fill="none">
    <g clip-path="url(#clip0_1317_313)">
      <path d="M185.88 28.7787H194.693L204.214 2.53128H209.17L209.976 0.270264H190.982L190.152 2.55586H195.304L185.88 28.7787Z" fill="white"/>
      <path d="M190.152 0.294922L179.85 28.828H169.182L170.646 9.83051L163.786 28.7788H155.925L166.325 0.319498H176.53L175.431 20.1034L182.657 0.294922H190.152Z" fill="white"/>
      <path d="M148.553 17.8669L143.987 17.7931L150.994 4.42365L148.553 17.8669ZM146.99 0.319415L129.193 28.7296H138.739L142.547 20.8652H147.698L146.16 28.7787H155.291L158.489 0.196533L146.99 0.319415Z" fill="white"/>
      <path d="M119.721 28.7543H128.656L138.861 0.24585H130.048L119.721 28.7543Z" fill="white"/>
      <path d="M113.471 10.5432H122.089L124.628 3.29322C124.628 3.29322 125.824 0 117.28 0H112.495C112.495 0 104.097 0.098305 102.949 2.75254L94.5025 25.928C94.5025 25.928 93.111 28.9754 101.216 28.9754H108.271C108.271 28.9754 115.424 28.9754 116.938 25.0678L121.357 12.7797H110.42L109.224 15.5814H111.592L108.393 24.8466C108.393 24.8466 107.93 26.1 106.709 26.1246H104.658C104.658 26.1246 103.096 26.1246 103.609 24.7729L111.128 3.63729C111.128 3.63729 111.567 2.55593 113.252 2.55593H115.083C115.083 2.55593 116.181 2.53136 115.766 3.88305L113.471 10.5186V10.5432Z" fill="white"/>
      <path d="M65.8904 28.8281H81.3438L82.3447 26.0509H75.7288L79.2931 16.0484H85.8846L86.8611 13.2958H80.3184L84.1757 2.45771H90.7183L91.524 0.24585H76.1682L65.8904 28.8281Z" fill="white"/>
      <path d="M51.0718 0.172119L42.2099 24.5764C40.4522 29.0984 46.7019 29.0001 46.7019 29.0001H53.8793C63.5956 29.0001 64.5721 25.1662 64.5721 25.1662L73.6049 0.221272H64.8895L56.2717 24.3552C55.637 26.223 54.514 26.1492 54.514 26.1492H51.7309C50.5835 26.1492 51.0718 24.7975 51.0718 24.7975L59.8116 0.172119H51.0718Z" fill="white"/>
      <path d="M24.7058 28.8525H39.5L40.3789 26.0754H34.5686L43.7723 0.294922H35.0813L24.7058 28.8525Z" fill="white"/>
      <path d="M22.289 4.71865L19.8477 11.2805C19.8477 11.2805 19.4571 12.7305 17.6017 12.7305H14.5501L18.3097 2.45763H20.9219C20.9219 2.45763 23.0946 2.35933 22.289 4.71865ZM17.6505 17.4246L14.721 25.117C14.721 25.117 14.4036 26.1737 12.8412 26.1983H9.64311L13.7201 15.0407H16.6496C16.6496 15.0407 18.5782 15.0407 17.6505 17.4246ZM29.0026 0.294922H10.2778L0 28.8034H18.6026C21.8496 28.8034 23.119 26.0509 23.119 26.0509L26.6589 16.4661C27.3181 14.672 25.7801 14.4263 25.7801 14.4263L23.8514 13.8364L24.9988 13.7873C27.6843 13.7873 28.2702 12.0424 28.2702 12.0424L31.3706 3.48984C32.5913 0.245769 29.027 0.319498 29.027 0.319498L29.0026 0.294922Z" fill="white"/>
      <path d="M209.341 25.2153C209.341 26.9848 207.925 28.4348 206.143 28.4348C204.361 28.4348 202.945 27.0094 202.945 25.2153C202.945 23.4213 204.361 21.9958 206.143 21.9958C207.925 21.9958 209.341 23.4213 209.341 25.2153Z" stroke="white" stroke-width="0.18"/>
      <path d="M205.41 24.9205H205.972C206.338 24.9205 206.558 24.9205 206.655 24.8713C206.753 24.8467 206.826 24.7976 206.875 24.7238C206.924 24.6501 206.948 24.5518 206.948 24.4535C206.948 24.3306 206.924 24.2323 206.851 24.1586C206.777 24.0849 206.68 24.0357 206.558 24.0111C206.509 24.0111 206.314 24.0111 205.996 24.0111H205.41V24.9696V24.9205ZM204.654 27.0832V23.323H206.24C206.631 23.323 206.924 23.3476 207.119 23.4213C207.29 23.495 207.437 23.6179 207.559 23.7899C207.656 23.962 207.73 24.1586 207.73 24.3798C207.73 24.6501 207.656 24.8959 207.485 25.0679C207.315 25.2399 207.07 25.3628 206.753 25.412C206.924 25.5103 207.046 25.6086 207.168 25.7315C207.266 25.8544 207.412 26.051 207.608 26.3459L208.071 27.0832H207.168L206.631 26.2722C206.436 25.9772 206.314 25.8052 206.24 25.7069C206.167 25.6332 206.094 25.584 206.021 25.5594C205.947 25.5349 205.825 25.5103 205.63 25.5103H205.484V27.0832H204.727H204.654Z" fill="white"/>
    </g>
    <defs>
      <clipPath id="clip0_1317_313">
        <rect width="210" height="29" fill="white"/>
      </clipPath>
    </defs>
  </svg>